<svg width="120" height="116" viewBox="0 0 120 116" fill="none" xmlns="http://www.w3.org/2000/svg">
<path d="M120 111.251C119.993 106.719 119.749 101.917 119.73 97.3953C119.501 92.3539 120.282 86.6637 116.79 82.5066C115.437 80.7797 113.597 79.3853 111.576 78.5241C115.65 75.3577 115.32 67.7078 110.275 65.7295C109.861 65.3852 105.879 65.0987 106.588 65.8202C106.564 65.9253 106.421 66.0243 106.556 66.0961C106.421 66.1549 106.284 66.1248 106.179 66.2568C106.506 66.8534 107.26 66.5761 107.638 66.9708C107.711 67.1718 107.991 67.0825 108.16 67.1612C108.682 67.3214 109.044 67.8284 109.466 68.1585C109.635 68.3208 109.854 68.5077 109.922 68.7313C110.234 69.4502 110.863 70.0921 110.944 70.9488C111.494 73.1933 110.169 75.6152 107.964 76.3416C106.318 77.0447 104.393 76.8015 103.069 75.5598C100.946 73.9151 101.271 70.786 102.533 68.7474C102.968 67.895 103.895 67.1985 104.831 66.9045C104.966 66.8382 105.037 66.6197 105.176 66.5652C105.333 66.44 105.548 66.4768 105.659 66.2861C105.72 66.1354 105.852 66.2006 105.933 66.1208C105.988 65.9838 106.082 65.9508 106.179 65.8876C105.428 64.9503 105.139 64.826 103.893 64.7783C101.79 64.7694 99.8725 65.9324 98.7631 67.6963C96.3394 71.2945 97.2215 76.5173 100.812 79.0204C99.2616 79.975 97.9982 81.3422 97.0542 82.885C95.5699 79.5854 92.7758 76.8546 89.4005 75.5191C93.8013 72.299 93.7552 64.4737 88.7741 61.8686C88.3712 61.3013 83.393 60.8322 84.284 61.6364C84.2558 61.7443 84.1026 61.8405 84.2497 61.9123C84.1043 61.9703 83.9537 61.939 83.837 62.071C84.2097 62.6748 85.0239 62.3934 85.453 62.8068C85.5454 63.0138 85.8455 62.9297 86.0313 63.0158C86.6067 63.197 87.0225 63.7367 87.4905 64.1028C87.6797 64.2837 87.9196 64.4855 88.0057 64.7318C88.3847 65.5253 89.0589 66.2477 89.1629 67.1965C89.7576 69.6089 88.4239 72.2781 86.0785 73.1666C84.1855 74.0612 81.8853 73.8367 80.3371 72.3762C77.9649 70.5139 78.2981 66.9909 79.7841 64.7131C80.3045 63.797 81.3154 63.0517 82.3458 62.7362C82.495 62.6673 82.5785 62.4445 82.7326 62.388C82.9037 62.2611 83.1395 62.295 83.2671 62.102C83.3354 61.9507 83.4796 62.0156 83.5683 61.9352C83.6285 61.798 83.7316 61.7647 83.8373 61.701C83.6262 61.535 83.399 61.2847 83.2204 61.0237C82.4253 60.5176 81.3459 60.5669 80.4384 60.72C78.6736 60.9798 77.2026 62.0127 76.1612 63.4399C73.2332 67.3831 74.2377 73.4083 78.4121 76.0763C76.857 77.0088 75.5564 78.2766 74.5049 79.7327C72.7784 75.7091 69.0117 72.6556 64.7676 71.6634C73.4031 66.8916 69.8158 52.8326 60.3193 55.1079C60.3789 55.1819 60.4834 55.1394 60.5263 55.2414C60.4918 55.3536 60.3245 55.4452 60.4898 55.517C60.3276 55.5741 60.1571 55.5405 60.0226 55.6731C60.4661 56.2132 61.1807 56.0897 61.7584 56.332C61.8085 56.3507 61.8571 56.3688 61.8767 56.4423C62.0023 56.6625 62.3277 56.5795 62.5414 56.68C63.289 56.9507 63.8725 57.6185 64.4713 58.1218C67.992 62.2792 66.4492 68.0351 60.8037 68.9825C59.1604 69.3474 57.4578 68.7325 56.1624 67.721C53.3262 65.6453 53.4362 61.6757 55.0977 58.9116C55.7408 57.8183 56.806 56.9062 58.0217 56.4561C58.4646 56.3935 58.6653 55.9287 59.1198 55.8669C59.3194 55.8532 59.402 55.5798 59.5984 55.5824C59.7747 55.5494 59.8352 55.3439 60.0223 55.3034C59.7879 55.14 59.5299 54.8917 59.3335 54.6298C58.2523 54.0491 56.8599 54.209 55.7131 54.5561C53.8533 54.8897 52.3799 56.3033 51.3546 57.8172C48.4301 62.2496 49.6834 68.4764 54.187 71.3525C50.4212 72.4494 47.1039 75.12 45.3788 78.6739C44.4679 77.3326 43.205 76.3155 41.833 75.47C46.1759 72.2261 46.0985 64.4573 41.1447 61.8678C40.7418 61.3005 35.7636 60.8313 36.6546 61.6355C36.6264 61.7434 36.4732 61.8399 36.6203 61.9114C36.4749 61.9694 36.3243 61.9381 36.2077 62.0702C36.5803 62.6739 37.3945 62.3926 37.8233 62.806C37.9157 63.013 38.2158 62.9289 38.4016 63.015C38.977 63.1961 39.3929 63.7359 39.8608 64.1019C40.0501 64.2828 40.2902 64.4846 40.3761 64.7309C40.7551 65.5245 41.4292 66.2468 41.5332 67.1956C42.1279 69.6081 40.7942 72.2769 38.4488 73.1657C36.5558 74.0603 34.2556 73.8358 32.7071 72.3754C30.3349 70.513 30.6681 66.9901 32.1542 64.7123C32.6746 63.7962 33.6854 63.0509 34.7159 62.7354C34.865 62.6665 34.9488 62.4437 35.1026 62.3871C35.2737 62.2602 35.5096 62.2941 35.6371 62.1012C35.7054 61.9499 35.8497 62.0148 35.9384 61.9344C35.9986 61.7971 36.1017 61.7638 36.2074 61.7001C35.9963 61.5342 35.769 61.2838 35.5905 61.0229C34.7956 60.5167 33.7159 60.5661 32.8085 60.7191C30.908 60.9967 29.3241 62.1916 28.2965 63.7876C25.9321 67.3449 26.4968 72.4207 29.7439 75.2589C26.9239 76.5626 24.5272 78.7988 23.0977 81.5575C22.3002 80.3437 20.8294 79.574 19.6173 78.7474C23.434 75.4846 23.7782 68.3431 19.0087 65.8483C18.0304 65.1352 16.8096 64.6419 15.6199 64.5432C15.266 64.7424 14.8357 64.5653 14.5169 64.7746C14.4152 64.9187 14.2672 64.836 14.1598 64.9084C14.0832 65.0387 13.9749 65.0614 13.8658 65.1142C14.0725 65.2839 14.2678 65.5627 14.3836 65.8486C14.6952 66.2422 15.1609 66.4756 15.5223 66.8144C16.7172 67.9464 18.0209 69.3862 18.3504 71.0355C18.8584 73.508 17.2206 76.4205 14.6439 76.8721C11.4558 77.6702 8.50593 74.8157 8.70752 71.6396C8.95174 69.0976 10.8824 66.6304 13.2319 65.6C13.449 65.4814 13.8312 65.4214 13.4179 65.2245C13.4341 65.1108 13.5815 65.0005 13.4182 64.9468C13.576 64.8728 13.7347 64.8886 13.8655 64.7444C13.1968 64.0692 12.2588 64.6798 11.4973 64.5096C10.4672 65.0554 9.24837 65.2724 8.39159 66.1113C4.41384 68.8016 4.54344 75.2455 7.88588 78.4575C4.53854 80.062 1.91694 83.115 0.756044 86.6247C-0.387575 90.5521 0.115836 94.8571 0.0804127 98.8847C0.125052 102.023 0.0222383 105.472 0.134267 108.619C0.100284 111.041 -0.124349 113.716 2.28125 115.14C3.02283 115.61 3.90956 115.856 4.78996 115.844C10.7001 116.052 16.519 115.326 22.399 115.073C22.922 115.657 24.2087 115.421 24.9037 115.435C26.0559 115.431 27.7611 115.355 28.9197 115.351C33.8533 115.231 38.9145 115.333 43.8055 114.481C44.2447 116.122 46.2598 115.908 47.5934 115.857C51.0796 115.744 54.5689 115.767 58.0554 115.695C62.5498 115.696 67.1522 115.609 71.6345 115.514C72.787 115.377 74.5905 115.902 75.4933 114.996C80.475 115.939 85.5604 115.788 90.6086 115.938C91.7632 115.947 93.8292 115.987 94.9631 115.987C96.0753 115.984 97.786 116.152 98.3761 114.968C102.773 115.873 107.278 115.831 111.75 115.903C115.666 116.168 119.655 116.243 120 111.251ZM20.6071 112.547C15.3826 111.577 9.95799 111.92 4.66842 111.698C4.24968 111.632 4.25947 111.17 4.27359 110.841C4.29547 107.346 4.05442 103.434 4.05932 99.9536C3.99337 98.1788 3.99366 96.2297 3.96371 94.4603C3.71661 91.0316 3.5729 87.3068 5.84199 84.4632C7.16014 82.6051 9.17292 81.1613 11.3769 80.6098C13.0905 81.1271 14.9434 80.9517 16.6394 80.4588C18.7432 80.7927 20.7952 81.6339 22.4523 82.9855C21.052 86.234 21.4944 89.8284 21.573 93.2637C21.6226 99.6734 21.8803 106.335 21.8443 112.759C21.438 112.663 21.0244 112.598 20.6071 112.547ZM43.1157 112.562C37.2591 112.059 31.2933 112.086 25.399 112.009C25.505 107.544 25.7345 102.779 25.5833 98.3105C25.524 95.9506 25.5816 93.3349 25.5721 90.9538C25.6038 89.1557 25.4068 87.2391 25.9479 85.5044C28.2628 77.5528 38.5453 75.1995 44.6888 80.3035C43.2586 84.1474 43.8732 88.4253 43.6886 92.4452C43.5431 98.9037 43.6373 106.114 43.6949 112.576C43.4993 112.585 43.3035 112.589 43.1157 112.562ZM67.3889 111.7C60.9431 111.745 54.2599 111.804 47.812 111.77C47.7464 105.897 47.766 98.2014 47.7616 92.3278C47.8503 89.3992 47.5433 86.4246 47.7481 83.5077C48.0917 78.2995 52.0772 74.3434 56.7755 72.5336C57.9672 72.941 59.2479 73.0592 60.4998 72.9912C61.5285 73.0156 62.4812 72.4116 63.4895 72.7865C71.9775 75.9606 72.9823 82.1948 72.5273 90.371C72.4688 97.4866 72.4115 104.658 72.2842 111.774C71.752 111.76 68.0121 111.709 67.3889 111.7ZM92.6375 111.846C87.0456 111.711 81.5161 112.201 75.9553 112.599C75.9616 106.763 75.8928 100.31 75.8023 94.4896C75.5558 90.0187 76.2228 85.3506 74.9758 80.9945C75.6445 80.5463 76.0869 79.704 76.8679 79.4468C77.0741 79.4666 77.3615 79.1557 77.5153 79.0371C78.7741 78.1304 80.818 77.4305 82.353 77.5677C83.5594 77.7498 84.7842 77.4578 85.9754 77.7271C89.8748 78.5769 93.3227 81.6987 94.1967 85.625C94.5285 86.8446 94.5633 88.1776 94.5011 89.4339C94.3191 96.857 94.5317 104.413 94.5334 111.84L92.6375 111.846ZM115.859 111.325C115.842 111.795 115.332 111.884 114.953 111.844C109.491 111.69 104.103 112.216 98.6756 112.602C98.6355 106.509 98.3856 100.221 98.3571 94.1405C98.0863 90.9047 98.5705 87.5497 97.6014 84.4011C97.9337 83.9981 98.2764 83.5086 98.6891 83.1695C98.8207 83.0211 99.0566 83.1132 99.1683 82.9315C100.709 81.3046 103.182 80.5067 105.372 80.6491C108.916 80.3127 112.409 82.0702 114.335 85.0603C116.185 87.7426 115.778 91.1372 115.739 94.2255C115.817 99.8801 115.812 105.668 115.859 111.325ZM69.8 35.0564C69.7752 34.4156 70.0865 33.8087 70.2288 33.2325C70.5024 31.9928 71.1412 30.8505 71.3822 29.6191C72.0547 27.8644 72.3162 25.8703 73.4091 24.2872C73.7527 23.2399 74.6838 22.6037 75.7131 22.308C76.044 22.221 76.505 22.3893 76.7933 22.3577C76.7979 22.42 76.9543 22.5027 76.975 22.5908C76.9664 22.6204 76.9782 22.6534 77.0505 22.7094C77.1283 22.7694 77.1378 22.8104 77.1334 22.8469C77.0845 22.956 77.2697 23.1369 77.3241 23.2761C77.1743 23.6361 77.2705 24.03 77.1213 24.3989C77.1067 24.4672 77.2112 24.5703 77.1671 24.628C77.1311 24.6981 77.136 24.9596 77.2049 25.1146C77.1147 25.526 77.0756 25.9555 76.8814 26.3477C76.3184 27.6442 75.8585 29.0243 75.3073 30.3139C75.0138 31.5053 74.2434 32.4895 73.6882 33.5672C73.374 34.2942 72.9501 34.9912 72.6333 35.7095C72.6347 35.7718 72.6105 35.8215 72.478 35.8224C72.2776 35.9343 72.2344 36.2211 72.053 36.3825C71.8923 36.5602 71.6849 36.706 71.7301 36.986C71.7537 37.0491 71.5412 36.9908 71.5369 37.0371C71.4165 37.1278 71.4499 37.2805 71.348 37.3796C71.2532 37.4637 71.0274 37.4803 70.8866 37.472C70.7835 37.3844 70.8212 37.3474 70.7809 37.2555C70.6919 37.2834 70.6095 37.1806 70.5266 37.143C70.4304 37.1344 70.3472 37.1918 70.308 37.1054C70.0531 36.4459 69.9054 35.7543 69.8 35.0564ZM104.754 43.5635C104.713 43.6106 104.765 43.7794 104.717 43.8564C104.69 43.8713 104.675 43.9032 104.687 43.9933C104.699 44.0904 104.677 44.1263 104.648 44.1489C104.536 44.1914 104.539 44.4498 104.478 44.5868C104.117 44.7355 103.907 45.0817 103.54 45.2373C103.481 45.2752 103.482 45.4219 103.41 45.4314C103.337 45.4538 103.154 45.6421 103.092 45.8017C102.737 46.0291 102.405 46.305 101.99 46.4451C100.674 46.9645 99.3714 47.6156 98.0685 48.1381C97.0173 48.7731 95.7758 48.9253 94.6201 49.2957C93.8831 49.5879 93.0897 49.7817 92.3573 50.0659C92.3141 50.111 92.262 50.1288 92.1678 50.0364C91.9469 49.9741 91.7131 50.1463 91.4706 50.1325C91.231 50.1449 90.9816 50.1015 90.8151 50.3312C90.7872 50.3926 90.678 50.2014 90.6423 50.231C90.4928 50.2106 90.4085 50.3418 90.2662 50.3401C90.1398 50.3326 89.9681 50.1854 89.8745 50.0803C89.8633 49.9465 89.9174 49.9442 89.9531 49.8529C89.8426 49.7751 89.9022 49.5457 89.7418 49.5072C89.6896 49.1601 90.0087 48.9865 90.1161 48.681C90.5265 47.7809 91.2667 47.0845 92.1658 46.7733C93.3653 45.9789 94.809 45.5322 96.0134 44.7725C97.65 44.0042 99.1859 42.8754 100.996 42.5406C101.98 42.0428 103.09 42.2498 104.026 42.7666C104.321 42.9388 104.528 43.3824 104.754 43.5635ZM30.6943 48.6784C30.6618 48.6887 30.6295 48.6979 30.5964 48.7077C30.6194 48.8409 30.4144 48.9609 30.5008 49.1013C30.4253 49.2658 30.2203 49.2713 30.1054 49.3063C29.0401 49.6425 27.8904 49.8632 26.877 49.3387C25.467 49.039 24.0979 48.3474 22.6988 48.0244C20.9942 47.4135 19.1058 47.1278 17.5863 46.088C16.536 45.7455 15.8973 44.817 15.6009 43.7912C15.5137 43.4613 15.6824 43.0017 15.6507 42.7143C15.7132 42.7097 15.7962 42.5538 15.8849 42.5332C15.9145 42.5418 15.9477 42.5297 16.0038 42.458C16.064 42.3804 16.1052 42.371 16.1418 42.3753C16.2512 42.4241 16.4324 42.2392 16.5723 42.1852C16.9337 42.3345 17.3286 42.2386 17.6987 42.3873C17.7672 42.402 17.8706 42.2975 17.9285 42.3417C17.9973 42.3773 18.2602 42.373 18.4163 42.3044C18.829 42.3939 19.2599 42.4333 19.6535 42.6268C20.9541 43.188 22.3388 43.6465 23.6325 44.196C24.8276 44.4886 25.8149 45.2565 26.8963 45.8101C27.6255 46.1233 28.3247 46.5459 29.0456 46.8617C29.1081 46.8602 29.1579 46.8844 29.1587 47.0164C29.2714 47.2162 29.5588 47.2593 29.7206 47.4402C29.8989 47.6007 30.0452 47.8071 30.326 47.762C30.3893 47.7382 30.3309 47.9503 30.3772 47.9546C30.4685 48.0744 30.6215 48.0411 30.7211 48.143C30.8052 48.2371 30.8225 48.4625 30.8138 48.6029C30.7571 48.675 30.7283 48.6678 30.6943 48.6784ZM42.8093 24.8494C42.6498 24.1425 42.9988 23.3921 43.2986 22.7516C43.4714 22.4567 43.9164 22.2509 44.0981 22.0252C44.1453 22.0663 44.3147 22.0143 44.3921 22.0623C44.4068 22.089 44.4388 22.1042 44.5295 22.0927C44.6268 22.0804 44.6628 22.1025 44.6856 22.1315C44.7282 22.2431 44.9877 22.2403 45.1248 22.3006C45.2742 22.6609 45.6216 22.871 45.7779 23.2373C45.816 23.2959 45.9631 23.295 45.9726 23.3671C45.9968 23.4417 46.186 23.6235 46.3441 23.6846C46.5722 24.0389 46.8493 24.3702 46.9901 24.7845C47.5117 26.0979 48.1654 27.3979 48.6901 28.6981C49.3277 29.7475 49.4809 30.986 49.8527 32.1395C50.1462 32.8751 50.3409 33.6666 50.6263 34.3978C50.6715 34.4409 50.6897 34.4931 50.5966 34.587C50.5341 34.8075 50.7069 35.0406 50.6934 35.2826C50.7058 35.5218 50.6626 35.7707 50.893 35.9369C50.9546 35.9648 50.7628 36.0736 50.7925 36.1095C50.772 36.2585 50.9039 36.3429 50.9019 36.4847C50.8944 36.611 50.7467 36.7821 50.6413 36.8754C50.5071 36.8866 50.5048 36.8326 50.4132 36.797C50.3351 36.9073 50.105 36.8479 50.0664 37.0081C49.718 37.0592 49.544 36.7416 49.2373 36.634C48.3339 36.2237 47.6352 35.4853 47.3224 34.5879C46.7203 33.6562 46.2644 32.6098 45.816 31.5874C44.6104 29.4684 43.2833 27.2874 42.8093 24.8494ZM80.6743 41.197C81.358 38.8948 82.8861 36.6641 84.6405 34.9706C86.7216 32.5194 89.1165 30.3027 91.2145 27.8707C94.409 24.8298 101.676 14.9604 106.199 16.05C106.178 16.1536 106.136 16.2346 106.191 16.3692C106.188 16.4815 106.05 16.5139 106.107 16.6681C106.124 16.9842 105.792 17.1389 105.831 17.5104C105.387 18.1589 104.854 18.8138 104.331 19.4313C102.18 22.8819 98.8248 25.5329 96.0433 28.5575C92.6548 32.1843 88.7666 35.3418 85.2093 38.8127C84.479 39.2124 83.8529 39.8919 83.1004 40.3444C82.7954 40.4672 82.7323 40.9998 82.4043 41.0133C81.8703 41.164 81.6264 41.9306 80.9347 41.7583C80.9084 41.5918 81.013 41.5183 81.0573 41.3808C80.92 41.4264 80.9344 41.2591 80.8707 41.1746C80.7751 41.1296 80.7567 41.2154 80.6743 41.197ZM14.2119 16.3956C14.2931 16.099 14.4083 15.7677 14.3934 15.501C14.4973 15.5223 14.5788 15.5639 14.7136 15.5091C14.8262 15.5122 14.8588 15.6497 15.0134 15.5929C15.3308 15.5757 15.4857 15.9064 15.8584 15.8679C16.509 16.3106 17.1662 16.8418 17.7856 17.3637C21.2473 19.5091 23.9069 22.8535 26.9415 25.6268C30.5803 29.005 33.7479 32.8817 37.2303 36.4284C37.6312 37.1568 38.3132 37.7806 38.767 38.5308C38.8906 38.8348 39.4245 38.8977 39.4381 39.2247C39.5893 39.7573 40.3582 40.0001 40.1854 40.6897C40.0184 40.7159 39.9446 40.6117 39.8067 40.5672C39.8525 40.7041 39.6846 40.6897 39.5999 40.7532C39.9144 41.5728 36.3234 39.3433 35.9603 39.2058C32.6769 36.7284 29.9216 33.608 26.788 30.9435C22.9594 26.9833 15.3656 21.8102 14.2119 16.3956ZM57.9122 11.9201C58.0116 8.64237 57.3434 1.85462 60.4111 0C60.4693 0.0884248 60.4975 0.175127 60.6317 0.231397C60.7092 0.312645 60.6346 0.433511 60.7841 0.502126C61.0208 0.713427 60.8958 1.05679 61.1867 1.29221C61.3327 2.06391 61.4206 2.90251 61.4885 3.70838C62.4144 7.66568 61.9231 11.9052 62.1017 16.0052C62.2782 20.959 61.7684 25.9329 61.7152 30.8956C61.4819 31.6931 61.5214 32.615 61.3105 33.4656C61.1821 33.7676 61.5153 34.1885 61.2927 34.4294C61.022 34.9126 61.3932 35.6266 60.7821 35.9923C60.6456 35.8933 60.6672 35.7675 60.6012 35.6389C60.5364 35.7681 60.4278 35.6392 60.323 35.6248C60.2211 35.6906 60.2144 35.8689 60.1064 35.7337C58.964 33.2546 58.515 30.5585 58.5403 27.8633C58.3364 22.5385 58.1544 17.2423 57.9122 11.9201Z" fill="black"/>
</svg>
