<svg width="114" height="95" viewBox="0 0 114 95" fill="none" xmlns="http://www.w3.org/2000/svg">
<path d="M108.864 27.8237C106.939 25.7238 104.489 26.0738 104.314 26.0738V17.6742C104.314 14.3493 101.689 11.7245 98.3645 11.7245H53.5666C51.2917 11.7245 49.0169 10.8495 47.4419 9.27457L40.2673 2.0999C38.8673 0.699968 37.1174 0 35.0175 0H13.4935C11.7436 0 10.1687 0.87496 9.11872 2.0999C7.5438 3.14985 6.66884 4.89977 6.31885 6.82468C5.61888 11.0245 7.19381 14.8743 6.84383 26.0738C6.66884 26.0738 3.86897 25.8988 2.11905 28.5237C-0.505828 31.3235 -0.155844 35.1734 0.369131 39.0232C2.11905 53.5475 4.04396 68.0718 5.79388 82.5961C6.84383 90.4708 8.94373 92.5707 16.9934 92.7457L88.39 94.3206C91.5399 94.3206 96.4396 93.6206 99.4145 92.3957C102.214 91.1707 104.314 87.4959 103.789 84.521L110.264 32.1985C110.439 30.4486 109.914 29.0486 108.864 27.8237ZM13.4935 2.62488H35.1925C36.4174 2.62488 37.6424 3.14985 38.5173 4.02481L45.692 11.1995C47.7919 13.2994 50.7668 14.5243 53.7416 14.5243H98.5395C100.289 14.5243 101.864 16.0992 101.864 17.8492V26.0738C56.8915 26.2488 58.4664 25.5488 57.7664 26.5988C53.7416 31.8485 54.6166 33.0735 53.2167 33.0735C45.692 32.7235 37.1174 33.4234 29.5928 33.0735C28.8928 33.0735 28.1928 32.7235 27.6679 32.0235C26.4429 30.0986 24.693 27.1237 22.7681 26.0738C20.4932 25.0238 16.1184 25.8988 14.0185 25.8988H11.0436L10.3437 5.77473C10.3437 4.02481 11.7436 2.62488 13.4935 2.62488ZM100.814 86.096C100.464 87.8459 99.2395 88.7208 98.0146 88.7208C92.0648 88.7208 123.738 89.0708 13.4935 87.8459C12.0936 87.8459 10.8686 86.7959 10.6936 85.221C3.34399 26.5988 3.69398 31.3235 4.21895 30.2736C4.56893 29.3986 5.61889 28.6987 6.66884 28.6987C6.84383 28.6987 9.99368 28.6987 9.81869 28.6987H14.1935C16.1184 28.6987 20.4932 27.9987 21.8931 28.5237C23.1181 29.0486 24.868 32.1985 25.7429 33.4234C26.6179 34.8234 28.0178 35.6983 29.7678 35.6983C37.2924 36.0483 45.867 35.3483 53.3916 35.6983C54.7916 35.8733 56.1915 34.9984 56.8915 33.5984C57.7664 31.6735 58.6414 30.0986 59.8663 28.5237C106.239 29.0486 105.364 27.8237 106.939 29.5736C107.464 30.0986 107.464 29.9236 100.814 86.096Z" fill="black"/>
<path d="M100.639 7.69958L101.689 3.49978C102.214 1.74986 99.5895 1.22488 99.0645 2.79981L98.0146 6.99961C97.6646 8.74953 100.289 9.27451 100.639 7.69958Z" fill="black"/>
<path d="M106.764 2.62479L102.739 8.74951C101.864 10.1494 103.964 11.5494 105.014 10.1494L109.039 4.02473C109.914 2.62479 107.639 1.22486 106.764 2.62479Z" fill="black"/>
<path d="M111.314 9.62421L107.114 12.2491C105.714 13.124 107.114 15.3989 108.514 14.524L112.714 11.8991C113.239 11.5491 113.414 10.6742 113.064 10.1492C112.714 9.44922 112.014 9.27423 111.314 9.62421Z" fill="black"/>
<path d="M69.3159 60.3717C61.0913 55.4719 55.4915 51.0971 45.692 47.2473C44.817 46.8973 43.9421 47.5973 43.9421 48.4723C44.467 67.3714 44.1171 72.4461 44.467 74.0211C44.642 74.896 45.517 75.246 46.217 75.071C56.0165 71.9212 61.7912 68.0713 69.4909 62.6466C70.1908 61.9466 70.1908 60.8967 69.3159 60.3717Z" fill="black"/>
</svg>
