<svg width="331" height="73" viewBox="0 0 331 73" fill="none" xmlns="http://www.w3.org/2000/svg">
<path d="M61.0175 38.5406C62.0479 38.5406 62.9133 39.2536 63.2018 40.2545C64.2597 44.0112 65.9494 46.7259 68.2574 48.3849C70.8951 50.2907 74.673 51.2504 79.5912 51.2504C81.9816 51.2504 84.0423 50.9762 85.7732 50.4141C87.5042 49.8656 88.933 49.1116 90.0595 48.1792C91.186 47.2469 92.024 46.1775 92.6147 44.9984C93.1917 43.8192 93.4802 42.5716 93.4802 41.2416C93.4802 38.5955 92.601 36.6486 90.8288 35.3598C89.0566 34.071 86.8311 33.0701 84.1522 32.3434C81.4733 31.6168 78.5883 30.9861 75.4698 30.4651C72.365 29.9441 69.4663 29.1626 66.7874 28.1205C64.1085 27.0785 61.883 25.5841 60.1108 23.6372C58.3386 21.6903 57.4594 18.9481 57.4594 15.4108C57.4594 10.9 59.1766 7.19809 62.6111 4.31886C66.0456 1.43962 70.9088 -3.78609e-10 77.2008 -5.43623e-10C83.4928 -7.08638e-10 88.2049 1.30251 92.0103 3.90754C95.1975 6.08753 97.3268 9.51519 98.3984 14.1768C98.7281 15.6027 97.6566 16.9875 96.2003 16.9875L94.2496 16.9875C93.1917 16.9875 92.2163 16.302 91.9828 15.2737C91.2272 11.9968 89.6886 9.63859 87.3669 8.17155C84.6605 6.47143 81.2397 5.62137 77.1184 5.62137C72.997 5.62137 69.851 6.47143 67.6804 8.17155C65.5098 9.87167 64.4245 12.1202 64.4245 14.8898C64.4245 17.3166 65.3037 19.1812 67.0759 20.47C68.8481 21.7588 71.0737 22.8008 73.7526 23.596C76.4315 24.3913 79.3164 25.1042 82.4349 25.7349C85.5397 26.3656 88.4384 27.2431 91.1173 28.3948C93.7962 29.5465 96.0217 31.0821 97.7939 33.029C99.5661 34.9759 100.445 37.6906 100.445 41.1594C100.445 43.7233 99.8684 45.9992 98.7144 47.9873C97.5604 49.9616 95.9668 51.6206 93.9473 52.9368C91.9278 54.2531 89.51 55.2402 86.7349 55.912C83.9461 56.5702 80.8963 56.8992 77.5717 56.8992C74.2471 56.8992 71.2935 56.433 68.7245 55.487C66.1555 54.5547 63.9712 53.2385 62.1578 51.5795C60.3443 49.9068 58.9431 47.9736 57.9265 45.7387C57.2808 44.3128 56.8 42.8047 56.5115 41.2416C56.2504 39.8569 57.3357 38.5544 58.7507 38.5544L61.0587 38.5544L61.0175 38.5406Z" fill="white"/>
<path d="M10.3834 30.1059C8.42378 30.1059 6.84517 31.8066 7.09013 33.7522C7.28065 35.3305 7.60726 36.8407 8.05634 38.3238C8.84565 40.9089 10.0024 43.1538 11.5538 45.045C13.0916 46.9362 15.0376 48.46 17.4055 49.5893C19.7734 50.7322 22.4952 51.3036 25.5707 51.3036C29.803 51.3036 33.4093 50.2288 36.4305 48.0927C39.0433 46.2423 40.8941 43.7116 41.9964 40.5143C42.2958 39.6299 43.0851 39.004 44.0241 39.004L46.5962 39.004C48.1339 39.004 49.1546 40.5823 48.5694 42.0109C47.9842 43.4395 47.3038 44.8001 46.5281 46.0926C45.2353 48.2696 43.6295 50.1608 41.697 51.7798C39.7646 53.3989 37.4647 54.6643 34.8246 55.5486C32.1709 56.4466 29.0954 56.8956 25.5843 56.8956C21.1479 56.8956 17.3103 56.1745 14.085 54.7187C10.8597 53.2765 8.20604 51.29 6.13752 48.773C4.05539 46.2559 2.51761 43.2899 1.51056 39.8884C0.503522 36.4734 -8.48748e-10 32.7998 -7.45912e-10 28.8814C-6.43077e-10 24.9629 0.585174 21.2622 1.76913 17.8199C2.95309 14.3777 4.62696 11.3572 6.81795 8.77209C9.00895 6.187 11.6626 4.15975 14.8199 2.67672C17.9771 1.19369 21.5562 0.458984 25.5707 0.458984C33.2324 0.458984 39.2475 2.98965 43.6295 8.05099C47.4263 12.4592 49.5492 18.5954 49.9847 26.4596C50.0936 28.4324 48.5558 30.1195 46.5825 30.1195L10.3834 30.1195L10.3834 30.1059ZM43.194 24.9357C43.194 22.3098 42.8129 19.8472 42.0645 17.5478C41.316 15.2348 40.2001 13.2348 38.7303 11.5477C37.2606 9.86055 35.4098 8.51358 33.1916 7.52036C30.9734 6.52714 28.4286 6.02373 25.5571 6.02373C22.6857 6.02373 20.1681 6.54075 17.9771 7.57479C15.7861 8.60882 13.9353 9.983 12.3839 11.7109C10.8461 13.4389 9.60774 15.4389 8.68234 17.7111C7.75695 19.9832 7.14456 22.405 6.85878 24.9493L43.1804 24.9493L43.194 24.9357Z" fill="white"/>
<path d="M139.51 0.14405C121.575 -1.63513 106.623 13.3151 108.402 31.2476C109.721 44.5211 120.449 55.2473 133.724 56.5657C151.659 58.3449 166.611 43.3947 164.832 25.4621C163.526 12.1887 152.786 1.46243 139.51 0.14405ZM155.384 41.7691C153.362 44.6491 150.75 46.889 147.537 48.4762C144.324 50.0634 140.714 50.857 136.72 50.857C132.303 50.857 128.411 49.9098 125.045 48.0282C121.678 46.1466 119.053 43.5099 117.159 40.1307C115.264 36.7516 114.317 32.8604 114.317 28.4445C114.317 24.0285 115.264 20.0606 117.159 16.6814C119.053 13.3023 121.678 10.6655 125.045 8.74554C128.411 6.83836 132.303 5.87838 136.72 5.87838C140.714 5.87838 144.324 6.68476 147.537 8.29754C150.75 9.91032 153.374 12.1503 155.384 15.0047C157.407 17.859 159.314 22.0702 159.647 25.9485L146.59 25.9485C145.194 25.9485 143.94 25.1933 143.146 24.0541C141.52 21.7374 138.627 20.3806 135.465 20.995C132.585 21.5582 130.242 23.8749 129.64 26.7421C128.629 31.606 132.303 35.894 137.001 35.894C139.498 35.894 141.699 34.678 143.069 32.8092C143.901 31.67 145.181 30.9532 146.59 30.9532L159.66 30.9532C159.327 34.7804 157.42 38.9019 155.397 41.7819L155.384 41.7691Z" fill="white"/>
<path d="M217.537 55.0073C215.584 55.0073 214.473 54.606 213.845 54.0977C213.216 53.5894 212.694 52.9741 212.319 52.2652C211.931 51.5563 211.664 50.7804 211.53 49.9244C211.383 49.0816 211.316 48.1854 211.316 47.2224C208.64 50.0715 205.577 52.2384 202.125 53.7366C198.673 55.2214 194.941 55.9704 190.927 55.9704C188.532 55.9704 186.231 55.6628 184.01 55.0608C181.789 54.4589 179.836 53.4958 178.15 52.2117C176.465 50.9276 175.127 49.3492 174.137 47.4899C173.147 45.6306 172.652 43.4101 172.652 40.8285C172.652 31.8798 179.02 26.5962 191.77 24.9643L200.533 23.8407C201.724 23.7069 203.155 23.5063 204.814 23.2387C206.473 22.9712 207.838 22.5967 208.894 22.1151C209.951 21.6336 210.634 20.7106 210.861 19.6271C211.089 18.5437 211.209 17.5538 211.209 16.6309C211.209 13.5142 210.165 10.9593 208.092 8.9529C206.018 6.95984 202.513 5.95662 197.576 5.95662C195.395 5.95662 193.389 6.14389 191.556 6.51843C189.723 6.89296 188.118 7.53502 186.753 8.4446C185.375 9.35419 184.251 10.5848 183.368 12.1097C182.713 13.2333 182.231 14.5709 181.91 16.1226C181.696 17.1525 180.746 17.8481 179.702 17.8481L177.789 17.8481C176.358 17.8481 175.261 16.5372 175.528 15.1327C175.903 13.153 176.532 11.4008 177.401 9.86249C178.672 7.65541 180.304 5.86299 182.311 4.47186C184.318 3.08073 186.646 2.06413 189.281 1.42207C191.917 0.780014 194.727 0.458984 197.683 0.458984C200.426 0.458984 203.021 0.753262 205.443 1.32844C207.878 1.90362 209.992 2.8132 211.784 4.07057C213.577 5.32794 214.982 6.99997 216.012 9.10004C217.029 11.2001 217.55 13.7817 217.55 16.8315M211.196 26.9038C208.52 27.9873 205.804 28.6962 203.061 29.044C200.319 29.3784 197.563 29.6593 194.82 29.86C189.964 30.2078 186.178 31.2511 183.462 33.0168C180.746 34.7824 179.395 37.4577 179.395 41.0425C179.395 42.6744 179.729 44.0789 180.398 45.256C181.067 46.4465 181.95 47.423 183.034 48.1988C184.131 48.9746 185.388 49.5498 186.833 49.9244C188.278 50.2989 189.736 50.4862 191.221 50.4862C193.763 50.4862 196.225 50.1785 198.62 49.5766C201.014 48.9613 203.142 48.0383 205.015 46.7809C206.874 45.5236 208.373 43.9318 209.51 42.0056C210.634 40.0794 211.196 37.7921 211.196 35.1436L211.196 26.9038Z" fill="white"/>
<path d="M228.886 72.0485L227.094 72.0485C225.916 72.0485 224.956 71.0885 224.956 69.9109L224.956 3.79974C224.956 2.71176 225.839 1.81577 226.94 1.81577L229.04 1.81577C230.128 1.81577 231.024 2.69896 231.024 3.79974L231.024 10.6733L231.229 10.6733C232.099 9.04768 233.226 7.5885 234.608 6.29571C235.991 5.00293 237.502 3.92774 239.153 3.08295C240.804 2.23816 242.507 1.58537 244.261 1.13738C246.015 0.689381 247.73 0.458984 249.42 0.458984C253.67 0.458984 257.267 1.13738 260.237 2.50696C263.207 3.86374 265.639 5.73252 267.56 8.10049C269.48 10.4685 270.875 13.2716 271.759 16.51C272.629 19.7483 273.077 23.2299 273.077 26.9163C273.077 30.4234 272.604 33.7898 271.656 37.0281C270.709 40.2665 269.288 43.1081 267.355 45.54C265.435 47.972 263.002 49.9176 260.071 51.3768C257.139 52.8359 253.683 53.5655 249.714 53.5655C246.002 53.5655 242.456 52.7719 239.051 51.1847C235.645 49.5976 232.97 47.2424 231.011 44.132L231.011 69.9109C231.011 71.0885 230.051 72.0485 228.873 72.0485L228.886 72.0485ZM231.011 27.2107C231.011 30.065 231.421 32.7658 232.227 35.3258C233.034 37.8857 234.199 40.1257 235.722 42.0457C237.233 43.9528 239.089 45.476 241.278 46.6152C243.467 47.7544 245.938 48.3176 248.703 48.3176C251.801 48.3176 254.515 47.716 256.845 46.5128C259.175 45.3096 261.069 43.6712 262.554 41.5977C264.039 39.5241 265.115 37.1049 265.793 34.353C266.472 31.601 266.74 28.6314 266.6 25.4571C266.6 22.2827 266.139 19.4795 265.23 17.0476C264.321 14.6156 263.054 12.5548 261.441 10.8781C259.828 9.18848 257.933 7.90849 255.782 7.0381C253.632 6.16771 251.263 5.71972 248.703 5.71972C245.874 5.71972 243.352 6.27011 241.124 7.3709C238.897 8.47168 237.054 9.98207 235.569 11.8892C234.084 13.8092 232.957 16.0748 232.176 18.6988C231.395 21.3227 231.011 24.1643 231.011 27.2107Z" fill="white"/>
<path d="M290.893 30.1059C288.934 30.1059 287.355 31.8066 287.6 33.7522C287.79 35.3305 288.117 36.8407 288.566 38.3238C289.355 40.9088 290.512 43.1538 292.064 45.045C293.601 46.9362 295.547 48.46 297.915 49.5893C300.283 50.7322 303.005 51.3036 306.08 51.3036C310.313 51.3036 313.919 50.2288 316.94 48.0927C319.553 46.2423 321.404 43.7116 322.506 40.5143C322.806 39.6299 323.595 39.004 324.534 39.004L327.106 39.004C328.644 39.004 329.664 40.5823 329.079 42.0109C328.494 43.4395 327.814 44.8001 327.038 46.0926C325.745 48.2696 324.139 50.1608 322.207 51.7798C320.274 53.3989 317.975 54.6643 315.334 55.5486C312.681 56.4466 309.605 56.8956 306.094 56.8956C301.658 56.8956 297.82 56.1745 294.595 54.7187C291.369 53.2765 288.716 51.29 286.647 48.773C284.565 46.2559 283.027 43.2899 282.02 39.8884C281.013 36.4734 280.51 32.7998 280.51 28.8814C280.51 24.9629 281.095 21.2622 282.279 17.8199C283.463 14.3777 285.137 11.3572 287.328 8.77209C289.519 6.187 292.172 4.15975 295.33 2.67672C298.487 1.19369 302.066 0.458984 306.08 0.458984C313.742 0.458984 319.757 2.98965 324.139 8.05099C327.936 12.4592 330.059 18.5954 330.494 26.4596C330.603 28.4324 329.066 30.1195 327.092 30.1195L290.893 30.1195L290.893 30.1059ZM323.704 24.9357C323.704 22.3098 323.323 19.8472 322.574 17.5478C321.826 15.2348 320.71 13.2348 319.24 11.5477C317.77 9.86055 315.92 8.51358 313.701 7.52036C311.483 6.52714 308.938 6.02373 306.067 6.02373C303.195 6.02373 300.678 6.54075 298.487 7.57479C296.296 8.60882 294.445 9.983 292.894 11.7109C291.356 13.4389 290.117 15.4389 289.192 17.7111C288.267 19.9832 287.654 22.405 287.369 24.9493L323.69 24.9493L323.704 24.9357Z" fill="white"/>
</svg>
