<svg width="117" height="81" viewBox="0 0 117 81" fill="none" xmlns="http://www.w3.org/2000/svg">
<path d="M43.1889 42.6414C50.9878 49.2731 63.3202 50.971 71.828 44.8984C78.9178 46.0297 86.7166 50.6849 88.9835 57.7437C91.2504 64.8026 91.6794 73.8399 82.183 74.9713C73.106 76.6634 63.4602 75.6772 54.2434 76.0969C46.7338 75.8183 34.2521 78.3613 29.4291 71.3025C26.4533 65.7947 28.0112 57.8906 30.9869 52.6632C33.8229 48.0081 38.5059 44.8984 43.1889 42.6414ZM20.6415 35.3021C24.6061 39.112 30.2779 41.9356 35.8099 41.5083C27.0223 45.7435 22.3393 55.3475 22.7684 65.0888C17.8056 64.8026 11.2848 66.3612 7.03094 63.3909C5.18383 60.9947 5.32379 58.0298 5.46362 55.067C6.03276 46.3102 12.2737 38.4062 20.6415 35.3021ZM96.5024 33.7434C104.87 36.8531 111.102 44.6179 111.671 53.5084C111.811 56.4787 112.1 59.4416 110.113 61.8397C105.859 64.6633 99.6182 63.2515 94.7952 63.5377C94.6553 52.6632 86.5768 43.3473 76.0819 40.8024C76.5111 40.2433 76.7909 39.9571 77.0706 39.3906C83.8807 41.3689 91.3996 38.6847 96.5024 33.7434ZM58.9264 11.7216C77.7796 12.0077 78.638 39.9571 60.6242 42.6414C36.0992 44.1924 35.1009 13.4195 58.9264 11.7216ZM34.9611 7.62551C38.6458 7.62551 42.1908 8.89792 44.7469 11.4411C37.088 17.7942 34.1121 29.0884 39.0749 37.7003C30.2779 39.112 20.7814 31.7726 19.7926 23.0158C18.7944 14.8313 27.1622 7.91167 34.9611 7.62551ZM81.8936 6.07439C89.8323 6.21375 98.3401 13.1333 97.3513 21.4647C96.3626 29.9354 87.4256 37.273 78.7779 36.2885C82.8919 27.3905 79.9067 15.9569 71.9679 10.1705C74.524 7.48615 78.069 6.07439 81.8936 6.07439ZM80.3357 0.00760998C74.8039 0.146829 68.563 2.40576 65.8763 7.06643C61.0534 5.93517 55.5214 6.07439 50.6984 7.77231C35.1009 -9.31579 4.04567 12.2882 17.9455 32.3317C4.90403 36.4277 -4.46213 53.9357 2.20797 66.3612C7.17091 72.4281 16.5275 70.3105 23.3374 70.03C28.5802 85.9794 50.1294 79.4871 63.0404 80.6183C74.0948 80.193 92.2486 83.0165 94.6553 68.4788C101.176 68.7594 110.113 70.5966 114.796 64.6633C121.457 52.0966 112.1 34.5961 99.0491 30.6413C108.975 17.0883 95.7934 -0.417905 80.3357 0.00760998Z" fill="black"/>
</svg>
