<svg width="129" height="89" viewBox="0 0 129 89" fill="none" xmlns="http://www.w3.org/2000/svg">
<path d="M103.343 22.3105C103.541 22.1109 103.703 21.8714 103.773 21.5781C104.657 17.8896 108.058 9.84277 110.012 5.92341C110.404 5.13747 110.084 4.18274 109.298 3.79029C108.513 3.40405 107.557 3.71987 107.165 4.50478C105.387 8.07214 101.349 17.4324 100.677 20.906C92.7295 16.8883 84.3856 14.3417 76.4189 12.7981C76.8658 12.5705 77.2091 12.1537 77.2843 11.6197L78.6253 2.07861C78.7475 1.20879 78.1417 0.40421 77.2719 0.282021C76.4021 0.170187 75.5985 0.766633 75.4753 1.63542L74.1343 11.1765C74.0656 11.6659 74.243 12.1192 74.5525 12.4574C70.6002 11.7606 66.7521 11.2807 63.128 10.9901C50.2335 9.959 38.2141 13.9168 27.9491 20.5279L21.0372 12.213C20.4769 11.5389 19.4736 11.4447 18.7974 12.007C18.1222 12.5682 18.0301 13.5706 18.5913 14.2467L25.2986 22.3155C18.9707 26.8042 13.3838 32.2831 8.77221 38.1662L2.71507 32.1091C2.09377 31.4878 1.08727 31.4878 0.465974 32.1091C-0.155325 32.7304 -0.155325 33.7369 0.465974 34.3582C1.89618 35.7801 6.43803 40.3655 6.8634 40.7111C4.22767 44.355 1.95657 48.1127 0.118047 51.8549C-0.158689 52.418 0.932691 59.1677 0.963012 59.3799C15.9473 76.5347 40.9234 88.4701 63.7003 88.6278C86.4773 88.7856 106.998 77.891 123.184 61.8656C125.209 59.8613 127.182 57.6929 128.22 55.0399C128.984 53.0874 129.141 50.8122 128.452 48.8697C128.541 48.7378 128.645 48.6116 128.733 48.4792C129.073 47.9698 129.089 47.3112 128.777 46.7852C127.021 43.8245 125.082 41.1344 123.031 38.6276C123.586 38.2194 122.325 39.4383 127.799 33.4014C128.385 32.7469 128.33 31.7415 127.675 31.1564C127.02 30.5693 126.014 30.6273 125.43 31.2807L120.978 36.2562C115.707 30.4137 109.699 25.8431 103.343 22.3105ZM125.521 47.5462C112.794 65.9439 87.8578 79.3691 64.4773 80.3145C42.2213 81.2289 17.8209 70.0114 3.42439 52.3561C13.6468 32.3037 36.3946 12.0339 62.8733 14.1608C83.1649 15.7876 110.389 22.917 125.521 47.5462Z" fill="black"/>
<path d="M64.4773 19.876C49.388 19.876 37.1122 32.1518 37.1122 47.241C37.1122 62.3303 49.388 74.6061 64.4773 74.6061C79.7307 74.6061 93.2876 62.4851 91.8361 47.0919C90.3491 31.3213 78.8427 19.876 64.4773 19.876ZM64.4773 71.4251C51.1421 71.4251 40.2932 60.5762 40.2932 47.241C40.2932 33.9059 51.1421 23.057 64.4773 23.057C77.1652 23.057 87.339 33.2908 88.6696 47.3902C89.9465 60.9288 77.806 71.4251 64.4773 71.4251Z" fill="black"/>
<path d="M47.6028 43.653C46.5332 49.1846 48.8786 55.3354 53.4379 58.9576C61.6933 65.5142 74.6527 62.9945 79.4205 54.1425C82.496 48.437 81.3 40.796 76.5781 35.9737C67.694 26.9024 50.1036 30.7168 47.6028 43.653Z" fill="black"/>
<path d="M44.8381 9.48748C45.0182 10.2092 45.6675 10.6918 46.3799 10.6918C47.4161 10.6918 48.175 9.71826 47.9238 8.715C46.8533 4.43717 47.0586 5.49217 45.9854 1.20351C45.7721 0.353362 44.9095 -0.163351 44.0563 0.0468547C43.2041 0.260167 42.6863 1.12377 42.8996 1.97599C43.9701 6.25381 43.7648 5.19881 44.8381 9.48748Z" fill="black"/>
</svg>
