<svg width="48" height="48" viewBox="0 0 48 48" fill="none" xmlns="http://www.w3.org/2000/svg">
<g clip-path="url(#clip0_1327_362)">
<path d="M27.9512 12.8123C22.1326 11.5926 17.5847 7.04466 16.3651 1.22597C16.2153 0.511687 15.5853 0 14.8553 0C14.1253 0 13.4953 0.511688 13.3455 1.22606C12.1259 7.04466 7.57795 11.5925 1.75936 12.8121C1.04498 12.9618 0.533203 13.5919 0.533203 14.3218C0.533203 15.0518 1.04489 15.6818 1.75936 15.8316C7.57786 17.0513 12.1256 21.5992 13.3453 27.4177C13.495 28.1321 14.125 28.6439 14.855 28.6439C15.585 28.6439 16.215 28.1322 16.3648 27.4177C17.5845 21.5992 22.1325 17.0513 27.9511 15.8318C28.6655 15.6821 29.1773 15.0521 29.1773 14.3221C29.1772 13.5922 28.6655 12.9621 27.9512 12.8123Z" fill="white"/>
<path d="M25.4 38.2955C22.6586 37.7209 20.5158 35.5781 19.941 32.8365C19.7913 32.1221 19.1613 31.6104 18.4313 31.6104C17.7014 31.6104 17.0713 32.1219 16.9215 32.8364C16.3468 35.5779 14.2039 37.7207 11.4625 38.2954C10.7481 38.4451 10.2363 39.0752 10.2363 39.8051C10.2363 40.5351 10.748 41.1652 11.4625 41.3149C14.2038 41.8896 16.3467 44.0324 16.9214 46.7739C17.0711 47.4883 17.7011 48.0001 18.4311 48.0001C19.161 48.0001 19.7911 47.4885 19.9409 46.7739C20.5156 44.0324 22.6585 41.8897 25.4 41.315C26.1144 41.1653 26.6262 40.5352 26.6262 39.8052C26.6262 39.0753 26.1145 38.4453 25.4 38.2955Z" fill="white"/>
<path d="M46.241 24.013C42.5355 23.2361 39.6392 20.3398 38.8625 16.6344C38.7128 15.92 38.0828 15.4082 37.3528 15.4082C36.6228 15.4082 35.9927 15.9198 35.843 16.6343C35.0662 20.3398 32.17 23.236 28.4644 24.0128C27.7501 24.1625 27.2383 24.7926 27.2383 25.5225C27.2383 26.2525 27.75 26.8825 28.4644 27.0323C32.1699 27.8091 35.0661 30.7053 35.8428 34.4109C35.9926 35.1252 36.6226 35.637 37.3526 35.637C38.0825 35.637 38.7126 35.1254 38.8623 34.4109C39.6392 30.7053 42.5355 27.8091 46.2409 27.0325C46.9553 26.8826 47.4671 26.2526 47.4671 25.5227C47.4671 24.7928 46.9554 24.1627 46.241 24.013Z" fill="white"/>
</g>
<defs>
<clipPath id="clip0_1327_362">
<rect width="48" height="48" fill="white"/>
</clipPath>
</defs>
</svg>
