<svg width="48" height="48" viewBox="0 0 48 48" fill="none" xmlns="http://www.w3.org/2000/svg">
<path d="M43.5563 7.3212L38.8433 6.6582C38.9465 7.09811 38.9992 7.54835 39.0003 8.0002V37.0002C38.9987 38.591 38.366 40.1162 37.2412 41.2411C36.1163 42.366 34.5911 42.9986 33.0003 43.0002H31.5723L38.4073 43.9612C38.9275 44.0343 39.4571 44.0043 39.9657 43.8727C40.4743 43.7412 40.952 43.5107 41.3716 43.1945C41.7911 42.8783 42.1443 42.4826 42.4108 42.0299C42.6774 41.5772 42.8522 41.0765 42.9253 40.5562L46.9613 11.8382C47.1087 10.7877 46.8328 9.72164 46.1942 8.87455C45.5557 8.02746 44.6068 7.46871 43.5563 7.3212Z" fill="white"/>
<path d="M32.9993 4H26.4062C27.0398 4.46911 27.5744 5.05875 27.9794 5.73507C28.3844 6.41138 28.6518 7.16105 28.7663 7.941L32.7992 36.659C33.018 38.1907 32.6325 39.7474 31.7243 41H32.9993C34.0601 41 35.0775 40.5786 35.8277 39.8284C36.5778 39.0783 36.9993 38.0609 36.9993 37V8C36.9993 6.93913 36.5778 5.92172 35.8277 5.17157C35.0775 4.42143 34.0601 4 32.9993 4Z" fill="white"/>
<path d="M30.8228 36.9382L26.7868 8.22017C26.6381 7.17058 26.0788 6.22294 25.2319 5.58543C24.3849 4.94792 23.3195 4.67268 22.2698 4.82017L4.44478 7.32117C3.39519 7.46987 2.44755 8.02913 1.81004 8.87608C1.17253 9.72303 0.897288 10.7884 1.04478 11.8382L5.07578 40.5562C5.14881 41.0764 5.32361 41.5772 5.5902 42.0299C5.85679 42.4826 6.20994 42.8783 6.62949 43.1945C7.04903 43.5107 7.52676 43.7411 8.03538 43.8727C8.54399 44.0042 9.07354 44.0343 9.59378 43.9612L27.4188 41.4552C28.4691 41.3074 29.4177 40.7486 30.0561 39.9015C30.6944 39.0545 30.9702 37.9885 30.8228 36.9382ZM8.95678 14.6592C8.84846 14.7336 8.72655 14.7859 8.598 14.8131C8.46945 14.8404 8.33679 14.842 8.20761 14.818C8.07842 14.7939 7.95524 14.7446 7.84512 14.6729C7.73499 14.6013 7.64007 14.5086 7.56578 14.4002L6.80078 13.2872L6.36978 14.5712C6.28531 14.8231 6.10421 15.0312 5.86632 15.1496C5.62843 15.2681 5.35324 15.2871 5.10128 15.2027C4.84933 15.1182 4.64125 14.9371 4.52282 14.6992C4.40439 14.4613 4.38531 14.1861 4.46978 13.9342L5.53778 10.7552C5.6074 10.5888 5.71911 10.4433 5.86193 10.3331C6.00475 10.2229 6.17378 10.1518 6.35242 10.1267C6.53105 10.1015 6.71315 10.1233 6.88082 10.1899C7.04849 10.2564 7.19598 10.3654 7.30878 10.5062L9.20878 13.2682C9.35972 13.4861 9.41796 13.755 9.3707 14.0158C9.32345 14.2767 9.17457 14.5081 8.95678 14.6592ZM20.9838 24.6162L17.9568 28.6332C17.6375 29.0564 17.1632 29.3356 16.6381 29.4093C16.1131 29.483 15.5803 29.3452 15.1568 29.0262L11.1388 26.0002C10.3944 25.4392 9.90333 24.6055 9.77356 23.6825C9.64379 22.7594 9.88595 21.8227 10.4468 21.0782C11.0081 20.3339 11.842 19.843 12.7652 19.7134C13.6884 19.5838 14.6252 19.8262 15.3698 20.3872C15.6446 20.0108 15.9916 19.6929 16.3904 19.4519C16.7893 19.2109 17.232 19.0516 17.693 18.9833C18.154 18.9149 18.624 18.939 19.0756 19.0539C19.5272 19.1689 19.9514 19.3725 20.3236 19.653C20.6958 19.9334 21.0085 20.285 21.2435 20.6874C21.4786 21.0898 21.6312 21.535 21.6927 21.9969C21.7541 22.4588 21.7231 22.9284 21.6014 23.3782C21.4797 23.8281 21.2697 24.2492 20.9838 24.6172V24.6162ZM27.3928 34.8422L26.3248 38.0222C26.2657 38.1984 26.1588 38.3546 26.0159 38.4734C25.873 38.5922 25.6998 38.6688 25.5158 38.6946C25.3318 38.7205 25.1442 38.6946 24.9741 38.6198C24.804 38.545 24.6581 38.4243 24.5528 38.2712L22.6528 35.5082C22.5024 35.2896 22.445 35.0203 22.4932 34.7594C22.5414 34.4986 22.6912 34.2676 22.9098 34.1172C23.1283 33.9668 23.3976 33.9094 23.6585 33.9576C23.9194 34.0058 24.1504 34.1556 24.3008 34.3742L25.0688 35.4892L25.4998 34.2052C25.5843 33.9532 25.7654 33.7451 26.0032 33.6267C26.121 33.5681 26.2492 33.5332 26.3805 33.5241C26.5118 33.515 26.6435 33.5318 26.7683 33.5737C26.893 33.6155 27.0083 33.6815 27.1076 33.7679C27.2068 33.8543 27.2881 33.9593 27.3467 34.0771C27.4054 34.1949 27.4403 34.3231 27.4494 34.4544C27.4585 34.5856 27.4416 34.7174 27.3998 34.8422H27.3928Z" fill="white"/>
</svg>
