<svg width="48" height="48" viewBox="0 0 48 48" fill="none" xmlns="http://www.w3.org/2000/svg">
<path fill-rule="evenodd" clip-rule="evenodd" d="M23 28V30H12.98C11.34 30 10 31.33 10 32.98V41.02C10 42.66 11.33 44 12.98 44H35.02C36.66 44 38 42.67 38 41.02V32.98C38 31.34 36.67 30 35.02 30H25V28H26.05C27.89 28 29.66 27.27 30.97 25.96C32.28 24.66 33.01 22.89 33.01 21.04V17.99C33.01 17.44 32.56 16.99 32.01 16.99C31.46 16.99 31.01 17.44 31.01 17.99V21.04C31.01 22.35 30.49 23.61 29.56 24.54C28.63 25.47 27.37 25.99 26.06 25.99H21.97C20.66 25.99 19.4 25.47 18.47 24.54C17.54 23.61 17.02 22.35 17.02 21.04V17.99C17.02 17.44 16.57 16.99 16.02 16.99C15.47 16.99 15.02 17.44 15.02 17.99V21.04C15.02 22.88 15.75 24.65 17.06 25.96C18.36 27.27 20.13 28 21.98 28H23.03H23ZM26.03 33.76L25.5 35.88L24.97 33.76C24.84 33.22 24.29 32.9 23.76 33.03C23.22 33.16 22.9 33.71 23.03 34.24L24.53 40.24C24.64 40.69 25.04 41 25.5 41C25.96 41 26.36 40.69 26.47 40.24L27.97 34.24C28.1 33.71 27.78 33.16 27.24 33.03C26.71 32.9 26.16 33.22 26.03 33.76ZM22 40V34C22 33.45 21.55 33 21 33C20.45 33 20 33.45 20 34V40C20 40.55 20.45 41 21 41C21.55 41 22 40.55 22 40ZM18 39H17V34C17 33.45 16.55 33 16 33C15.45 33 15 33.45 15 34V40C15 40.55 15.45 41 16 41H18C18.55 41 19 40.55 19 40C19 39.45 18.55 39 18 39ZM31 36V35H32C32.55 35 33 34.55 33 34C33 33.45 32.55 33 32 33H30C29.45 33 29 33.45 29 34V40C29 40.55 29.45 41 30 41H32C32.55 41 33 40.55 33 40C33 39.45 32.55 39 32 39H31V38H32C32.55 38 33 37.55 33 37C33 36.45 32.55 36 32 36H31ZM30 19H18V21.03C18 22.08 18.42 23.09 19.16 23.84C19.9 24.59 20.91 25 21.97 25H26.03C27.08 25 28.09 24.58 28.84 23.84C29.59 23.1 30 22.09 30 21.03V19ZM6.29 6.29C6.29 6.29 4 8.52 4 13C4 17.48 6.29 19.71 6.29 19.71C6.68 20.1 7.31 20.1 7.71 19.71C8.1 19.32 8.1 18.69 7.71 18.29C7.71 18.29 6 16.52 6 13C6 9.48 7.71 7.71 7.71 7.71C8.1 7.32 8.1 6.69 7.71 6.29C7.32 5.9 6.69 5.9 6.29 6.29ZM40.29 7.71C40.29 7.71 42 9.48 42 13C42 16.52 40.29 18.29 40.29 18.29C39.9 18.68 39.9 19.31 40.29 19.71C40.68 20.1 41.31 20.1 41.71 19.71C41.71 19.71 44 17.48 44 13C44 8.52 41.71 6.29 41.71 6.29C41.32 5.9 40.69 5.9 40.29 6.29C39.9 6.68 39.9 7.31 40.29 7.71ZM10.44 8.17C10.44 8.17 7.99 9.77 7.99 13C7.99 16.23 10.44 17.83 10.44 17.83C10.9 18.14 11.52 18.01 11.83 17.55C12.14 17.09 12.01 16.47 11.55 16.16C11.55 16.16 10 15.1 10 12.99C10 10.88 11.55 9.82 11.55 9.82C12.01 9.51 12.13 8.89 11.83 8.43C11.52 7.97 10.9 7.85 10.44 8.15V8.17ZM36.44 9.83C36.44 9.83 37.99 10.89 37.99 13C37.99 15.11 36.44 16.17 36.44 16.17C35.98 16.48 35.86 17.1 36.16 17.56C36.47 18.02 37.09 18.14 37.55 17.84C37.55 17.84 40 16.24 40 13.01C40 9.78 37.55 8.18 37.55 8.18C37.09 7.87 36.47 8 36.16 8.46C35.85 8.92 35.98 9.54 36.44 9.85V9.83ZM17.99 15V17H29.99V15H26.99C26.44 15 25.99 14.55 25.99 14C25.99 13.45 26.44 13 26.99 13H29.99V11H26.99C26.44 11 25.99 10.55 25.99 10C25.99 9.45 26.44 9 26.99 9H29.99V7.97C29.99 6.92 29.57 5.91 28.83 5.16C28.09 4.41 27.08 4 26.02 4H21.96C20.91 4 19.9 4.42 19.15 5.16C18.4 5.9 17.99 6.91 17.99 7.97V9H20.99C21.54 9 21.99 9.45 21.99 10C21.99 10.55 21.54 11 20.99 11H17.99V13H20.99C21.54 13 21.99 13.45 21.99 14C21.99 14.55 21.54 15 20.99 15H17.99ZM13.44 10.17C13.44 10.17 11.99 11.11 11.99 13C11.99 14.89 13.44 15.83 13.44 15.83C13.9 16.14 14.52 16.01 14.83 15.55C15.14 15.09 15.01 14.47 14.55 14.16C14.55 14.16 14 13.76 14 12.99C14 12.22 14.55 11.82 14.55 11.82C15.01 11.51 15.13 10.89 14.83 10.43C14.52 9.97 13.9 9.85 13.44 10.15V10.17ZM33.44 11.83C33.44 11.83 33.99 12.23 33.99 13C33.99 13.77 33.44 14.17 33.44 14.17C32.98 14.48 32.86 15.1 33.16 15.56C33.47 16.02 34.09 16.14 34.55 15.84C34.55 15.84 36 14.9 36 13.01C36 11.12 34.55 10.18 34.55 10.18C34.09 9.87 33.47 10 33.16 10.46C32.85 10.92 32.98 11.54 33.44 11.85V11.83Z" fill="white"/>
</svg>
