<svg width="48" height="48" viewBox="0 0 48 48" fill="none" xmlns="http://www.w3.org/2000/svg">
<g clip-path="url(#clip0_1327_348)">
<path d="M35.0386 7.96503C34.8781 7.80368 34.6598 7.71331 34.4322 7.71387H14.424C14.1965 7.71321 13.9781 7.80368 13.8176 7.96503L10.5363 11.2463C10.375 11.4068 10.2846 11.6251 10.2852 11.8527V17.1425C10.2858 17.6157 10.6692 17.999 11.1423 17.9997H14.5708C15.044 17.999 15.4273 17.6157 15.428 17.1425V15.2813C15.426 14.5988 15.6973 13.9439 16.1814 13.4628L16.8912 12.753C17.3723 12.269 18.0272 11.9978 18.7096 11.9997H29.2891C29.9716 11.9977 30.6265 12.269 31.1076 12.753L31.8174 13.4628C32.3014 13.944 32.5726 14.5989 32.5708 15.2813V17.9996C32.5692 19.4191 31.4188 20.5694 29.9993 20.571H25.5667C25.3392 20.5704 25.1207 20.6608 24.9602 20.8222L19.9648 25.8177C19.8034 25.9782 19.713 26.1965 19.7136 26.4241V29.9996H27.4279C27.9011 29.9989 28.2844 29.6156 28.2851 29.1424V26.424C28.2831 25.7415 28.5544 25.0867 29.0384 24.6056L29.7482 23.8958C30.2294 23.4117 30.8843 23.1405 31.5668 23.1424H34.4321C34.6596 23.1431 34.878 23.0526 35.0385 22.8912L38.3198 19.61C38.4811 19.4495 38.5715 19.2312 38.5709 19.0035V11.8526C38.5716 11.625 38.4811 11.4066 38.3198 11.2461L35.0386 7.96503Z" fill="white"/>
<path d="M27.4292 36H20.572C20.0987 36 19.7148 36.3837 19.7148 36.8572V40.2857C19.7148 40.759 20.0986 41.1428 20.572 41.1428H27.4292C27.9025 41.1428 28.2863 40.7591 28.2863 40.2857V36.8572C28.2863 36.3837 27.9026 36 27.4292 36Z" fill="white"/>
<path d="M5.57084 6.85751C6.28091 6.85751 6.85653 6.28189 6.85653 5.57182C6.85653 4.86175 6.28091 4.28613 5.57084 4.28613C4.86078 4.28613 4.28516 4.86175 4.28516 5.57182C4.28516 6.28189 4.86078 6.85751 5.57084 6.85751Z" fill="white"/>
<path d="M42.4283 43.714C43.1383 43.714 43.714 43.1383 43.714 42.4283C43.714 41.7182 43.1383 41.1426 42.4283 41.1426C41.7182 41.1426 41.1426 41.7182 41.1426 42.4283C41.1426 43.1383 41.7182 43.714 42.4283 43.714Z" fill="white"/>
<path d="M43.7143 0H4.28569C1.91991 0.0028125 0.0028125 1.91991 0 4.28569V43.7142C0.0028125 46.0801 1.91991 47.9972 4.28569 48H43.7142C46.08 47.9972 47.9972 46.0801 47.9999 43.7143V4.28569C47.9972 1.91991 46.0801 0.0028125 43.7143 0ZM5.57147 2.57147C7.22831 2.57147 8.57147 3.91463 8.57147 5.57147C8.57147 7.22831 7.22831 8.57147 5.57147 8.57147C3.91463 8.57147 2.57147 7.22831 2.57147 5.57147C2.57344 3.91537 3.91537 2.57344 5.57147 2.57147ZM5.57147 45.4285C3.91463 45.4285 2.57147 44.0854 2.57147 42.4285C2.57147 40.7717 3.91463 39.4285 5.57147 39.4285C7.22831 39.4285 8.57147 40.7717 8.57147 42.4285C8.56941 44.0846 7.22747 45.4266 5.57147 45.4285ZM30 40.2857C29.9984 41.7052 28.8481 42.8556 27.4285 42.8572H20.5714C19.1518 42.8556 18.0015 41.7052 17.9999 40.2857V36.8572C18.0015 35.4376 19.1518 34.2873 20.5714 34.2857H27.4285C28.848 34.2873 29.9984 35.4376 30 36.8572V40.2857ZM34.4326 24.8572H31.5673C31.3398 24.8565 31.1213 24.947 30.9608 25.1083L30.2511 25.8181C30.0897 25.9786 29.9993 26.1969 29.9999 26.4246V29.1428C29.9983 30.5624 28.848 31.7127 27.4284 31.7143H19.0177C18.9906 31.7143 18.9637 31.7131 18.9374 31.7106C18.6979 31.7302 18.4609 31.6495 18.2831 31.4877C18.1054 31.3259 18.0028 31.0975 17.9999 30.8572V26.4246C17.9979 25.7421 18.2693 25.0872 18.7533 24.6061L23.7488 19.6105C24.23 19.1265 24.8848 18.8553 25.5673 18.8572H30C30.4732 18.8565 30.8565 18.4732 30.8572 18V15.2816C30.8578 15.0541 30.7673 14.8357 30.606 14.6752L29.8962 13.9654C29.7357 13.804 29.5174 13.7137 29.2898 13.7142H18.7103C18.4827 13.7136 18.2643 13.804 18.1038 13.9654L17.394 14.6752C17.2327 14.8357 17.1423 15.054 17.1428 15.2816V17.1427C17.1412 18.5622 15.9909 19.7126 14.5714 19.7142H11.1428C9.72328 19.7126 8.57297 18.5623 8.57137 17.1427V11.853C8.56941 11.1705 8.84072 10.5157 9.32475 10.0345L12.606 6.75328C13.0872 6.26925 13.7421 5.99803 14.4246 5.99991H34.4327C35.1152 5.99794 35.77 6.26925 36.2512 6.75328L39.5324 10.0345C40.0164 10.5157 40.2877 11.1706 40.2858 11.8531V19.0041C40.2878 19.6866 40.0164 20.3414 39.5324 20.8225L36.2512 24.1038C35.7699 24.5878 35.1151 24.8591 34.4326 24.8572ZM42.4285 45.4285C40.7717 45.4285 39.4285 44.0854 39.4285 42.4285C39.4285 40.7717 40.7717 39.4285 42.4285 39.4285C44.0854 39.4285 45.4285 40.7717 45.4285 42.4285C45.4266 44.0846 44.0846 45.4266 42.4285 45.4285ZM42.4285 8.57147C40.7717 8.57147 39.4285 7.22831 39.4285 5.57147C39.4305 3.91547 40.7725 2.57344 42.4285 2.57147C44.0854 2.57147 45.4285 3.91463 45.4285 5.57147C45.4285 7.22831 44.0855 8.57147 42.4285 8.57147Z" fill="white"/>
<path d="M5.57084 43.714C6.28091 43.714 6.85653 43.1383 6.85653 42.4283C6.85653 41.7182 6.28091 41.1426 5.57084 41.1426C4.86078 41.1426 4.28516 41.7182 4.28516 42.4283C4.28516 43.1383 4.86078 43.714 5.57084 43.714Z" fill="white"/>
<path d="M42.4283 6.85751C43.1383 6.85751 43.714 6.28189 43.714 5.57182C43.714 4.86175 43.1383 4.28613 42.4283 4.28613C41.7182 4.28613 41.1426 4.86175 41.1426 5.57182C41.1426 6.28189 41.7182 6.85751 42.4283 6.85751Z" fill="white"/>
</g>
<defs>
<clipPath id="clip0_1327_348">
<rect width="48" height="48" fill="white"/>
</clipPath>
</defs>
</svg>
