<svg width="48" height="48" viewBox="0 0 48 48" fill="none" xmlns="http://www.w3.org/2000/svg">
<path d="M36.4089 13.767C36.1116 7.30011 30.8125 2.00103 24.3445 1.7033C20.8391 1.54253 17.5242 2.78582 15.0002 5.19659C13.5163 6.61346 12.4309 8.29766 11.7717 10.2027C11.396 11.2907 11.5666 12.4574 12.2412 13.4034C12.9194 14.3552 14.0203 14.9235 15.1855 14.9235C16.7236 14.9235 18.0749 13.9853 18.5481 12.5893C18.8315 11.7521 19.3061 11.0117 19.9595 10.388C21.0522 9.34319 22.4915 8.80889 24.0156 8.87481C25.5237 8.94439 26.9578 9.66033 27.9509 10.8392C28.9463 12.0213 29.3901 13.5085 29.1997 15.0264C28.9712 16.8509 27.7781 18.5021 26.0854 19.3356C22.4871 21.1077 20.1616 24.9028 20.1616 29.004V32.2252C20.1616 34.2045 21.7722 35.8148 23.7512 35.8148C25.7302 35.8148 27.3408 34.2045 27.3408 32.2252V29.004C27.3408 27.6076 28.0996 26.3376 29.2744 25.7681C33.8425 23.5536 36.6426 18.8431 36.4089 13.767Z" fill="white"/>
<path d="M44.3065 25.2024C42.857 23.6167 40.8817 22.7166 38.7438 22.6671C37.4913 22.6389 36.2887 22.8975 35.1754 23.4384C34.4928 23.7701 34.0284 24.3938 33.9017 25.1489C33.7743 25.9074 34.0226 26.6834 34.5646 27.2253C35.2809 27.9424 36.3502 28.1332 37.2225 27.7014C37.6605 27.485 38.1527 27.3766 38.6354 27.3927C39.4725 27.4117 40.2467 27.7651 40.8151 28.3877C41.3776 29.0044 41.6581 29.8456 41.5856 30.6956C41.5123 31.5477 41.1044 32.3029 40.4371 32.8218C39.6329 33.4462 38.5182 33.6249 37.5272 33.2887C35.1871 32.4922 32.5211 33.1323 30.7355 34.918L29.3805 36.273C28.4591 37.194 28.4591 38.6932 29.3805 39.615C29.8412 40.0757 30.4462 40.306 31.0519 40.306C31.6569 40.306 32.2618 40.0757 32.7225 39.615L34.0775 38.26C34.6027 37.7345 35.3629 37.5397 36.0155 37.7664C38.9518 38.7844 42.2074 37.9583 44.3065 35.6581C46.9806 32.7273 46.9806 28.1347 44.3065 25.2024Z" fill="white"/>
<path d="M17.2823 35.127C16.7564 34.6011 16.5623 33.8405 16.7893 33.1886C17.8081 30.2501 16.9805 26.9956 14.6807 24.8972C11.7481 22.2235 7.1558 22.225 4.22464 24.898C2.63895 26.3467 1.7388 28.322 1.68973 30.46C1.66044 31.7161 1.91971 32.9169 2.46024 34.0287C2.79276 34.7113 3.41604 35.1757 4.17117 35.3027C4.92777 35.4298 5.7056 35.1826 6.24759 34.6399C6.9639 33.924 7.15506 32.8557 6.72366 31.9816C6.50687 31.5439 6.40359 31.0686 6.41458 30.5687C6.43362 29.7323 6.78738 28.9581 7.40921 28.3894C8.02591 27.8269 8.86453 27.5442 9.71853 27.6189C10.5703 27.6918 11.3255 28.0997 11.8448 28.7677C12.4695 29.5712 12.6475 30.6859 12.3106 31.6769C11.5152 34.0174 12.1546 36.6834 13.9402 38.469L15.2952 39.8236C15.7412 40.27 16.3352 40.5158 16.9658 40.5158C17.5972 40.5158 18.1912 40.27 18.6372 39.8236C19.5586 38.9022 19.5586 37.4033 18.6372 36.4819L17.2823 35.127Z" fill="white"/>
<path d="M24 46.3105C25.9675 46.3105 27.5625 44.7156 27.5625 42.748C27.5625 40.7805 25.9675 39.1855 24 39.1855C22.0325 39.1855 20.4375 40.7805 20.4375 42.748C20.4375 44.7156 22.0325 46.3105 24 46.3105Z" fill="white"/>
</svg>
